<svg width="40" height="40" viewBox="0 0 40 40" fill="none" xmlns="http://www.w3.org/2000/svg">
<g id="Icon Asset">
<path id="Vector" d="M11.667 35C10.7503 35 9.9656 34.6736 9.31283 34.0208C8.66005 33.3681 8.33366 32.5833 8.33366 31.6667V10C7.86144 10 7.4656 9.84028 7.14616 9.52083C6.82671 9.20139 6.66699 8.80556 6.66699 8.33333C6.66699 7.86111 6.82671 7.46528 7.14616 7.14583C7.4656 6.82639 7.86144 6.66667 8.33366 6.66667H15.0003C15.0003 6.19444 15.16 5.79861 15.4795 5.47917C15.7989 5.15972 16.1948 5 16.667 5H23.3337C23.8059 5 24.2017 5.15972 24.5212 5.47917C24.8406 5.79861 25.0003 6.19444 25.0003 6.66667H31.667C32.1392 6.66667 32.535 6.82639 32.8545 7.14583C33.1739 7.46528 33.3337 7.86111 33.3337 8.33333C33.3337 8.80556 33.1739 9.20139 32.8545 9.52083C32.535 9.84028 32.1392 10 31.667 10V31.6667C31.667 32.5833 31.3406 33.3681 30.6878 34.0208C30.035 34.6736 29.2503 35 28.3337 35H11.667ZM28.3337 10H11.667V31.6667H28.3337V10ZM16.667 28.3333C17.1392 28.3333 17.535 28.1736 17.8545 27.8542C18.1739 27.5347 18.3337 27.1389 18.3337 26.6667V15C18.3337 14.5278 18.1739 14.1319 17.8545 13.8125C17.535 13.4931 17.1392 13.3333 16.667 13.3333C16.1948 13.3333 15.7989 13.4931 15.4795 13.8125C15.16 14.1319 15.0003 14.5278 15.0003 15V26.6667C15.0003 27.1389 15.16 27.5347 15.4795 27.8542C15.7989 28.1736 16.1948 28.3333 16.667 28.3333ZM23.3337 28.3333C23.8059 28.3333 24.2017 28.1736 24.5212 27.8542C24.8406 27.5347 25.0003 27.1389 25.0003 26.6667V15C25.0003 14.5278 24.8406 14.1319 24.5212 13.8125C24.2017 13.4931 23.8059 13.3333 23.3337 13.3333C22.8614 13.3333 22.4656 13.4931 22.1462 13.8125C21.8267 14.1319 21.667 14.5278 21.667 15V26.6667C21.667 27.1389 21.8267 27.5347 22.1462 27.8542C22.4656 28.1736 22.8614 28.3333 23.3337 28.3333Z" fill="#C70A18"/>
</g>
</svg>
