<svg width="40" height="40" viewBox="0 0 40 40" fill="none" xmlns="http://www.w3.org/2000/svg">
<g id="Icon Asset">
<path id="Vector" d="M8.33333 31.6667H10.7083L27 15.375L24.625 13L8.33333 29.2917V31.6667ZM6.66667 35C6.19444 35 5.79861 34.8403 5.47917 34.5208C5.15972 34.2014 5 33.8056 5 33.3333V29.2917C5 28.8472 5.08333 28.4236 5.25 28.0208C5.41667 27.6181 5.65278 27.2639 5.95833 26.9583L27 5.95833C27.3333 5.65278 27.7014 5.41667 28.1042 5.25C28.5069 5.08333 28.9306 5 29.375 5C29.8194 5 30.25 5.08333 30.6667 5.25C31.0833 5.41667 31.4444 5.66667 31.75 6L34.0417 8.33333C34.375 8.63889 34.6181 9 34.7708 9.41667C34.9236 9.83333 35 10.25 35 10.6667C35 11.1111 34.9236 11.5347 34.7708 11.9375C34.6181 12.3403 34.375 12.7083 34.0417 13.0417L13.0417 34.0417C12.7361 34.3472 12.3819 34.5833 11.9792 34.75C11.5764 34.9167 11.1528 35 10.7083 35H6.66667ZM25.7917 14.2083L24.625 13L27 15.375L25.7917 14.2083Z" fill="#2B3D51"/>
</g>
</svg>
