<svg width="16" height="17" viewBox="0 0 16 17" fill="none" xmlns="http://www.w3.org/2000/svg">
<path d="M9.8335 10.5003V11.0003C9.8335 11.1448 9.88072 11.2642 9.97516 11.3587C10.0696 11.4531 10.1891 11.5003 10.3335 11.5003C10.4779 11.5003 10.5974 11.4531 10.6918 11.3587C10.7863 11.2642 10.8335 11.1448 10.8335 11.0003V10.5003H11.3335C11.5224 10.5003 11.6807 10.4364 11.8085 10.3087C11.9363 10.1809 12.0002 10.0225 12.0002 9.83366V7.16699C12.0002 6.9781 11.9363 6.81977 11.8085 6.69199C11.6807 6.56421 11.5224 6.50033 11.3335 6.50033H9.3335C9.14461 6.50033 8.98627 6.56421 8.8585 6.69199C8.73072 6.81977 8.66683 6.9781 8.66683 7.16699V9.83366C8.66683 10.0225 8.73072 10.1809 8.8585 10.3087C8.98627 10.4364 9.14461 10.5003 9.3335 10.5003H9.8335ZM5.00016 9.16699H6.3335V10.0003C6.3335 10.1448 6.38072 10.2642 6.47516 10.3587C6.56961 10.4531 6.68905 10.5003 6.8335 10.5003C6.97794 10.5003 7.09739 10.4531 7.19183 10.3587C7.28627 10.2642 7.3335 10.1448 7.3335 10.0003V7.00033C7.3335 6.85588 7.28627 6.73644 7.19183 6.64199C7.09739 6.54755 6.97794 6.50033 6.8335 6.50033C6.68905 6.50033 6.56961 6.54755 6.47516 6.64199C6.38072 6.73644 6.3335 6.85588 6.3335 7.00033V8.16699H5.00016V7.00033C5.00016 6.85588 4.95294 6.73644 4.8585 6.64199C4.76405 6.54755 4.64461 6.50033 4.50016 6.50033C4.35572 6.50033 4.23627 6.54755 4.14183 6.64199C4.04739 6.73644 4.00016 6.85588 4.00016 7.00033V10.0003C4.00016 10.1448 4.04739 10.2642 4.14183 10.3587C4.23627 10.4531 4.35572 10.5003 4.50016 10.5003C4.64461 10.5003 4.76405 10.4531 4.8585 10.3587C4.95294 10.2642 5.00016 10.1448 5.00016 10.0003V9.16699ZM9.66683 9.50033V7.50033H11.0002V9.50033H9.66683ZM2.66683 13.8337C2.30016 13.8337 1.98627 13.7031 1.72516 13.442C1.46405 13.1809 1.3335 12.867 1.3335 12.5003V4.50033C1.3335 4.13366 1.46405 3.81977 1.72516 3.55866C1.98627 3.29755 2.30016 3.16699 2.66683 3.16699H13.3335C13.7002 3.16699 14.0141 3.29755 14.2752 3.55866C14.5363 3.81977 14.6668 4.13366 14.6668 4.50033V12.5003C14.6668 12.867 14.5363 13.1809 14.2752 13.442C14.0141 13.7031 13.7002 13.8337 13.3335 13.8337H2.66683ZM2.66683 12.5003H13.3335V4.50033H2.66683V12.5003Z" fill="#1F2620"/>
</svg>
