<svg width="80" height="80" viewBox="0 0 80 80" fill="none" xmlns="http://www.w3.org/2000/svg">
<path d="M19.9999 70.0005C16.6665 70.0005 14.0138 68.7089 12.0415 66.1255C10.0693 63.5422 9.49987 60.6672 10.3332 57.5005L16.3332 34.8339C14.4999 33.6672 12.986 32.0839 11.7915 30.0839C10.5971 28.0839 9.99987 25.8339 9.99987 23.3339C9.99987 19.6672 11.3054 16.5283 13.9165 13.9172C16.5276 11.3061 19.6665 10.0005 23.3332 10.0005H49.9999C52.4999 10.0005 54.3888 11.0561 55.6665 13.1672C56.9443 15.2783 57.0277 17.445 55.9165 19.6672L49.2499 33.0005C48.6388 34.1117 47.8193 35.0005 46.7915 35.6672C45.7638 36.3339 44.611 36.6672 43.3332 36.6672H36.5832L35.6665 40.0005H36.6665C37.611 40.0005 38.4026 40.32 39.0415 40.9589C39.6804 41.5978 39.9999 42.3894 39.9999 43.3339V50.0005C39.9999 50.945 39.6804 51.7367 39.0415 52.3755C38.4026 53.0144 37.611 53.3339 36.6665 53.3339H32.1665L29.6665 62.6672C29.0554 64.8339 27.861 66.5978 26.0832 67.9589C24.3054 69.32 22.2776 70.0005 19.9999 70.0005ZM19.9999 63.3339C20.7776 63.3339 21.4443 63.1117 21.9999 62.6672C22.5554 62.2228 22.9443 61.6394 23.1665 60.9172L29.6665 36.6672H22.7499L16.7499 59.1672C16.4721 60.2228 16.6665 61.1811 17.3332 62.0422C17.9999 62.9033 18.8888 63.3339 19.9999 63.3339ZM23.3332 30.0005H43.3332L49.9999 16.6672H23.3332C21.4999 16.6672 19.9304 17.32 18.6249 18.6255C17.3193 19.9311 16.6665 21.5005 16.6665 23.3339C16.6665 25.1672 17.3193 26.7367 18.6249 28.0422C19.9304 29.3478 21.4999 30.0005 23.3332 30.0005ZM73.0832 12.2505L65.5832 15.6672C64.9721 15.945 64.3471 15.9589 63.7082 15.7089C63.0693 15.4589 62.611 15.0283 62.3332 14.4172C62.0554 13.8061 62.0277 13.1811 62.2499 12.5422C62.4721 11.9033 62.8888 11.445 63.4999 11.1672L70.9999 7.75055C71.611 7.47277 72.2499 7.45888 72.9165 7.70888C73.5832 7.95888 74.0554 8.38944 74.3332 9.00055C74.611 9.61166 74.6249 10.2367 74.3749 10.8755C74.1249 11.5144 73.6943 11.9728 73.0832 12.2505ZM63.5832 35.5839C62.9721 35.3061 62.5277 34.8339 62.2499 34.1672C61.9721 33.5005 61.9721 32.8617 62.2499 32.2505C62.5277 31.5839 62.9999 31.1394 63.6665 30.9172C64.3332 30.695 64.9999 30.7228 65.6665 31.0005L73.1665 34.5005C73.7777 34.7783 74.1943 35.2367 74.4165 35.8755C74.6388 36.5144 74.611 37.1394 74.3332 37.7505C74.0554 38.3617 73.5971 38.7922 72.9582 39.0422C72.3193 39.2922 71.6943 39.2783 71.0832 39.0005L63.5832 35.5839ZM74.1665 25.8339H65.8332C65.111 25.8339 64.5138 25.5978 64.0415 25.1255C63.5693 24.6533 63.3332 24.0561 63.3332 23.3339C63.3332 22.6117 63.5693 22.0144 64.0415 21.5422C64.5138 21.07 65.111 20.8339 65.8332 20.8339H74.1665C74.8888 20.8339 75.486 21.07 75.9582 21.5422C76.4304 22.0144 76.6665 22.6117 76.6665 23.3339C76.6665 24.0561 76.4304 24.6533 75.9582 25.1255C75.486 25.5978 74.8888 25.8339 74.1665 25.8339Z" fill="#2B3D51"/>
</svg>
