<svg width="32" height="32" viewBox="0 0 32 32" fill="none" xmlns="http://www.w3.org/2000/svg">
<g id="Icon Asset">
<path id="Vector" d="M10.6663 24H21.333V21.3333H10.6663V24ZM10.6663 18.6666H21.333V16H10.6663V18.6666ZM7.99967 29.3333C7.26634 29.3333 6.63856 29.0722 6.11634 28.55C5.59412 28.0277 5.33301 27.4 5.33301 26.6666V5.33329C5.33301 4.59996 5.59412 3.97218 6.11634 3.44996C6.63856 2.92774 7.26634 2.66663 7.99967 2.66663H18.6663L26.6663 10.6666V26.6666C26.6663 27.4 26.4052 28.0277 25.883 28.55C25.3608 29.0722 24.733 29.3333 23.9997 29.3333H7.99967ZM17.333 12V5.33329H7.99967V26.6666H23.9997V12H17.333Z" fill="#2B3D51"/>
</g>
</svg>
