<svg width="166" height="166" viewBox="0 0 166 166" fill="none" xmlns="http://www.w3.org/2000/svg">
<rect width="166" height="166" rx="83" fill="#D9D9D9"/>
<path d="M83.4416 83.285C96.7254 83.285 107.594 72.4162 107.594 59.1327C107.594 45.8489 96.725 34.9805 83.4416 34.9805C70.1581 34.9805 59.2893 45.8493 59.2893 59.1327C59.2893 72.4166 70.1581 83.285 83.4416 83.285Z" fill="white"/>
<path d="M37.4407 113.804C37.4407 115.012 38.4287 116 39.6366 116H127.137C128.344 116 129.333 115.012 129.333 113.804C129.333 98.654 118.025 85.5888 102.984 83.6127C102.435 83.5031 101.886 83.7222 101.337 84.0516C96.2865 87.7848 90.0287 89.8712 83.4416 89.8712C76.8544 89.8712 70.5966 87.7856 65.4364 83.9428C64.9975 83.6134 64.4484 83.5039 63.7897 83.5039C48.7495 85.5896 37.4411 98.6536 37.4411 113.805L37.4407 113.804Z" fill="white"/>
</svg>
